{"title":"Dane - Anal Consequences For Teenagers 3","uid":9933257,"size":169245228,"categoryP":"porn","categoryS":"movie_clips","magnet":"?xt=urn:btih:fd63913b794c12dae9d4a847e4e81385885b5481&amp;dn=Dane+-+Anal+Consequences+For+Teenagers+3&amp;tr=udp%3A%2F%2Ftracker.openbittorrent.com%3A80&amp;tr=udp%3A%2F%2Fopen.demonii.com%3A1337&amp;tr=udp%3A%2F%2Ftracker.coppersurfer.tk%3A6969&amp;tr=udp%3A%2F%2Fexodus.desync.com%3A6969","seeders":0,"leechers":2,"uploader":"athklym","files":-1,"time":1397129789,"description":" &lt;a href=&quot;http://bayimg.com/mANBFaafH&quot; rel=&quot;nofollow&quot; target=&quot;_NEW&quot;&gt;http://bayimg.com/mANBFaafH&lt;/a&gt;\n\nDane_Anal_Consequences_For_Teenagers_3.avi\nFormat : AVI\nFormat/Info : Audio Video Interleave\nFile size : 161 MiB\nDuration : 23mn 14s\nOverall bit rate : 971 Kbps\nWriting library : VirtualDub build 35491/release\n\nVideo\nID : 0\nFormat : MPEG-4 Visual\nFormat profile : Advanced Simple@L5\nFormat settings, BVOP : 2\nFormat settings, QPel : No\nFormat settings, GMC : No warppoints\nFormat settings, Matrix : Default (H.263)\nMuxing mode : Packed bitstream\nCodec ID : XVID\nCodec ID/Hint : XviD\nDuration : 23mn 14s\nBit rate : 831 Kbps\nWidth : 720 pixels\nHeight : 404 pixels\nDisplay aspect ratio : 16:9\nFrame rate : 29.970 fps\nColor space : YUV\nChroma subsampling : 4:2:0\nBit depth : 8 bits\nScan type : Progressive\nCompression mode : Lossy\nBits/(Pixel*Frame) : 0.095\nStream size : 138 MiB (86%)\nWriting library : XviD 64\n\nAudio\nID : 1\nFormat : MPEG Audio\nFormat version : Version 1\nFormat profile : Layer 3\nMode : Joint stereo\nMode extension : MS Stereo\nCodec ID : 55\nCodec ID/Hint : MP3\nDuration : 23mn 14s\nBit rate mode : Constant\nBit rate : 128 Kbps\nChannel count : 2 channels\nSampling rate : 44.1 KHz\nCompression mode : Lossy\nStream size : 21.3 MiB (13%)\nAlignment : Split accross interleaves\nInterleave, duration : 33 ms (1.00 video frame)\nInterleave, preload duration : 500 ms\nWriting library : LAME3.98.2","torrent":{"xt":"urn:btih:fd63913b794c12dae9d4a847e4e81385885b5481","amp;dn":"Dane+-+Anal+Consequences+For+Teenagers+3","amp;tr":["udp%3A%2F%2Ftracker.openbittorrent.com%3A80","udp%3A%2F%2Fopen.demonii.com%3A1337","udp%3A%2F%2Ftracker.coppersurfer.tk%3A6969","udp%3A%2F%2Fexodus.desync.com%3A6969"],"infoHash":"fd63913b794c12dae9d4a847e4e81385885b5481","infoHashBuffer":{"type":"Buffer","data":[253,99,145,59,121,76,18,218,233,212,168,71,228,232,19,133,136,91,84,129]},"announce":[],"urlList":[]}}